<?xml version="1.0" encoding="UTF-8"?>
<!-- Generator: visioncortex VTracer 0.6.3 -->
<svg version="1.1" xmlns="http://www.w3.org/2000/svg" width="1280" height="1280">
<path d="M0 0 C422.4 0 844.8 0 1280 0 C1280 422.4 1280 844.8 1280 1280 C857.6 1280 435.2 1280 0 1280 C0 857.6 0 435.2 0 0 Z " fill="#F2E4DF" transform="translate(0,0)"/>
<path d="M0 0 C1 -0 2 -0.01 3.03 -0.01 C4.14 -0.01 5.25 -0 6.39 -0 C8.15 -0 8.15 -0 9.95 -0.01 C13.24 -0.01 16.53 -0.01 19.81 -0.01 C23.38 -0.01 26.94 -0.01 30.51 -0.01 C36.77 -0.02 43.03 -0.02 49.28 -0.02 C58.59 -0.02 67.9 -0.02 77.2 -0.03 C94.79 -0.04 112.37 -0.04 129.95 -0.04 C143.53 -0.04 157.1 -0.04 170.68 -0.05 C174.58 -0.05 178.48 -0.05 182.38 -0.05 C183.35 -0.05 184.32 -0.05 185.32 -0.05 C212.62 -0.06 239.91 -0.06 267.21 -0.06 C268.24 -0.06 269.27 -0.06 270.33 -0.06 C275.55 -0.06 280.77 -0.06 285.99 -0.06 C287.03 -0.06 288.06 -0.06 289.13 -0.06 C291.23 -0.06 293.32 -0.06 295.42 -0.06 C328.05 -0.06 360.69 -0.07 393.32 -0.08 C429.95 -0.09 466.58 -0.1 503.21 -0.1 C507.11 -0.1 511.02 -0.1 514.92 -0.1 C515.88 -0.1 516.84 -0.1 517.83 -0.1 C533.33 -0.1 548.82 -0.11 564.32 -0.12 C579.88 -0.13 595.44 -0.13 611 -0.12 C620.25 -0.12 629.51 -0.12 638.76 -0.13 C644.94 -0.13 651.11 -0.13 657.28 -0.13 C660.8 -0.12 664.33 -0.12 667.85 -0.13 C671.63 -0.14 675.42 -0.13 679.2 -0.12 C680.31 -0.13 681.42 -0.13 682.56 -0.14 C684.06 -0.13 684.06 -0.13 685.6 -0.12 C686.89 -0.12 686.89 -0.12 688.22 -0.12 C690.3 0.13 690.3 0.13 692.3 2.13 C692.56 5.02 692.56 5.02 692.58 8.82 C692.58 9.52 692.59 10.22 692.59 10.93 C692.61 13.29 692.61 15.64 692.62 18 C692.63 19.68 692.64 21.37 692.65 23.06 C692.67 27.69 692.69 32.31 692.7 36.94 C692.72 41.84 692.74 46.75 692.77 51.65 C692.82 61.1 692.85 70.54 692.89 79.98 C692.91 87.55 692.95 95.12 692.98 102.69 C692.99 104.29 692.99 104.29 693 105.92 C693.01 108.07 693.01 110.22 693.02 112.37 C693.19 149.2 693.33 186.02 693.32 222.84 C693.32 224.02 693.32 225.2 693.32 226.41 C693.32 236.77 693.31 247.14 693.27 257.5 C693.26 261.03 693.25 264.56 693.24 268.1 C693.24 270.41 693.22 272.72 693.21 275.04 C693.21 276.38 693.2 277.72 693.2 279.05 C693.19 280.19 693.19 281.33 693.18 282.5 C693.12 285.11 693.12 285.11 694.3 287.13 C694.39 288.89 694.42 290.65 694.42 292.42 C694.42 293.54 694.42 294.66 694.42 295.82 C694.42 297.05 694.41 298.29 694.41 299.56 C694.41 300.86 694.41 302.16 694.41 303.49 C694.41 307.06 694.41 310.62 694.4 314.19 C694.39 317.91 694.39 321.63 694.39 325.35 C694.39 332.4 694.38 339.46 694.37 346.51 C694.36 354.53 694.35 362.56 694.35 370.59 C694.34 387.1 694.32 403.61 694.3 420.13 C690.2 420.15 686.11 420.17 682.02 420.18 C680.62 420.19 679.23 420.19 677.84 420.2 C675.84 420.21 673.84 420.22 671.84 420.22 C670.63 420.23 669.43 420.23 668.19 420.24 C665.3 420.13 665.3 420.13 663.3 419.13 C663.04 390.75 662.78 362.37 662.53 333.99 C662.5 330.54 662.47 327.09 662.44 323.64 C662.44 322.96 662.43 322.27 662.42 321.56 C662.35 312.97 662.27 304.37 662.19 295.77 C661.38 208.21 661.3 120.69 661.3 33.13 C344.99 32.63 344.99 32.63 22.3 32.13 C22.79 35.59 22.79 35.59 23.3 39.13 C23.38 40.48 23.43 41.83 23.44 43.18 C23.44 44.27 23.44 44.27 23.45 45.38 C23.45 46.16 23.45 46.93 23.46 47.74 C23.46 48.58 23.47 49.42 23.47 50.29 C23.49 53.12 23.49 55.94 23.5 58.76 C23.51 60.8 23.52 62.84 23.53 64.88 C23.56 70.45 23.58 76.02 23.6 81.59 C23.62 87.53 23.65 93.47 23.68 99.41 C23.73 110.89 23.77 122.37 23.82 133.85 C23.85 143.08 23.89 152.31 23.92 161.55 C24.18 224.98 24.4 288.41 24.42 351.85 C24.42 356.62 24.42 361.4 24.43 366.18 C24.44 374.31 24.44 382.43 24.43 390.56 C24.43 393.19 24.43 395.82 24.43 398.46 C24.44 401.97 24.43 405.49 24.43 409 C24.43 410.03 24.43 411.06 24.43 412.11 C24.43 413.03 24.43 413.96 24.42 414.9 C24.42 415.7 24.42 416.5 24.42 417.32 C24.3 419.13 24.3 419.13 23.3 420.13 C18.66 420.54 14.01 420.64 9.36 420.81 C8.05 420.87 6.73 420.93 5.38 421 C3.5 421.07 3.5 421.07 1.58 421.14 C0.43 421.18 -0.73 421.23 -1.92 421.28 C-4.7 421.13 -4.7 421.13 -6.7 419.13 C-6.92 416.14 -7.01 413.24 -7.01 410.26 C-7.02 409.32 -7.03 408.39 -7.04 407.43 C-7.07 404.29 -7.08 401.15 -7.1 398.01 C-7.12 395.77 -7.13 393.53 -7.15 391.28 C-7.2 385.15 -7.24 379.03 -7.27 372.9 C-7.3 367.71 -7.34 362.53 -7.38 357.35 C-7.51 339.61 -7.61 321.87 -7.7 304.13 C-7.71 302.83 -7.72 301.52 -7.72 300.18 C-7.94 258.76 -8.09 217.34 -8.23 175.92 C-8.28 161.92 -8.33 147.91 -8.38 133.91 C-8.4 127.98 -8.42 122.05 -8.44 116.12 C-8.52 89.32 -8.81 62.54 -9.53 35.74 C-9.71 28.91 -9.85 22.08 -9.95 15.25 C-9.97 14.33 -9.99 13.4 -10 12.45 C-10.06 7.85 -9.71 4.85 -6.7 1.13 C-4.27 -0.09 -2.72 0 0 0 Z " fill="#0C1A51" transform="translate(297.70245599746704,355.8735001683235)"/>
<path d="M0 0 C1.51 -0 1.51 -0 3.05 -0.01 C4.17 -0.01 5.29 -0 6.45 -0 C7.63 -0 8.82 -0 10.04 -0 C13.36 -0.01 16.67 -0.01 19.99 -0 C23.59 -0 27.19 -0 30.78 -0.01 C37.1 -0.01 43.41 -0.01 49.73 -0.01 C59.12 -0 68.51 -0.01 77.9 -0.01 C94.67 -0.01 111.43 -0.01 128.2 -0.01 C142.87 -0.01 157.54 -0.01 172.22 -0.01 C173.68 -0.01 173.68 -0.01 175.16 -0.01 C179.11 -0.01 183.05 -0.01 186.99 -0.01 C224.02 -0.01 261.05 -0.01 298.08 -0 C331 0 363.93 -0 396.86 -0.01 C433.82 -0.01 470.78 -0.01 507.74 -0.01 C511.67 -0.01 515.61 -0.01 519.55 -0.01 C520.52 -0.01 521.49 -0.01 522.48 -0.01 C537.15 -0.01 551.82 -0.01 566.48 -0.01 C583.15 -0.01 599.82 -0.01 616.49 -0.01 C625.83 -0 635.17 -0 644.51 -0.01 C650.74 -0.01 656.97 -0.01 663.2 -0 C666.75 -0 670.31 -0 673.86 -0.01 C677.68 -0.01 681.5 -0.01 685.31 -0 C686.44 -0 687.56 -0.01 688.71 -0.01 C690.22 -0 690.22 -0 691.76 0 C692.64 0 693.51 0 694.41 0 C696.38 0.13 696.38 0.13 697.38 1.13 C697.47 3.27 697.49 5.42 697.48 7.57 C697.48 8.87 697.47 10.18 697.47 11.52 C697.46 12.91 697.45 14.3 697.44 15.69 C697.44 17.08 697.44 18.47 697.43 19.87 C697.42 23.29 697.4 26.71 697.38 30.13 C691.53 31.39 685.75 31.27 679.8 31.25 C678.62 31.26 677.44 31.26 676.22 31.26 C672.94 31.26 669.66 31.26 666.38 31.26 C662.81 31.26 659.24 31.26 655.68 31.27 C649.42 31.27 643.17 31.27 636.92 31.27 C627.62 31.27 618.32 31.27 609.02 31.28 C591.45 31.29 573.88 31.29 556.31 31.29 C542.75 31.29 529.19 31.29 515.62 31.3 C511.72 31.3 507.82 31.3 503.92 31.3 C502.47 31.3 502.47 31.3 500.98 31.3 C473.7 31.31 446.42 31.31 419.14 31.31 C418.11 31.31 417.09 31.31 416.03 31.31 C410.81 31.31 405.6 31.31 400.38 31.31 C399.35 31.31 398.31 31.31 397.24 31.31 C395.15 31.31 393.06 31.31 390.96 31.31 C358.35 31.31 325.75 31.32 293.14 31.33 C256.53 31.35 219.92 31.36 183.3 31.35 C179.4 31.35 175.5 31.35 171.6 31.35 C170.64 31.35 169.68 31.35 168.69 31.35 C153.21 31.35 137.73 31.36 122.24 31.37 C106.7 31.38 91.15 31.38 75.6 31.37 C66.36 31.37 57.11 31.37 47.86 31.38 C41.7 31.39 35.53 31.38 29.37 31.38 C25.85 31.37 22.33 31.37 18.81 31.38 C15.03 31.39 11.25 31.38 7.47 31.37 C5.8 31.38 5.8 31.38 4.11 31.39 C2.61 31.38 2.61 31.38 1.08 31.37 C-0.22 31.38 -0.22 31.38 -1.54 31.38 C-3.62 31.13 -3.62 31.13 -5.62 29.13 C-5.86 26.34 -5.86 26.34 -5.85 22.84 C-5.85 21.59 -5.84 20.34 -5.84 19.05 C-5.83 17.73 -5.82 16.42 -5.81 15.06 C-5.8 13.74 -5.8 12.43 -5.8 11.07 C-5.75 0 -5.75 0 0 0 Z " fill="#EA2078" transform="translate(294.61788034439087,849.8746508359909)"/>
<path d="M0 0 C2.76 1.47 4.22 3.4 6.14 5.86 C6.84 6.73 7.53 7.6 8.25 8.5 C9.79 10.8 10.53 12.34 10.95 15.04 C9.52 16.19 8.08 17.34 6.64 18.48 C5.84 19.12 5.04 19.76 4.21 20.41 C1.95 22.04 1.95 22.04 -1.05 23.04 C-0.58 26.24 -0.01 29.16 1.02 32.23 C3.24 41.28 2.53 50.08 -2.3 58.13 C-8.3 66.65 -15.61 73.08 -26.05 75.04 C-35.92 75.86 -45.45 75.55 -55.05 73.04 C-55.38 75.02 -55.71 77 -56.05 79.04 C-51.5 82.51 -47.65 83.83 -41.97 84.61 C-40.83 84.78 -40.83 84.78 -39.66 84.96 C-37.23 85.34 -34.79 85.69 -32.36 86.04 C-4.43 90.12 -4.43 90.12 1.95 98.04 C2.67 98.85 3.4 99.65 4.14 100.48 C8.94 107.27 8.66 115.05 7.95 123.04 C6.07 130.75 1.24 136.14 -5.22 140.52 C-18.55 148.4 -36.3 148.5 -51.05 145.04 C-60.97 141.87 -70.11 135.65 -76.05 127.04 C-78.44 121.53 -79.38 114.96 -78.05 109.04 C-75.74 106.13 -73.14 104.07 -70.05 102.04 C-70.85 98.14 -72.55 96.14 -75.05 93.04 C-77.87 87.23 -77.79 81.37 -77.05 75.04 C-75.49 70.71 -73.29 66.9 -70.74 63.08 C-69.79 60.97 -69.79 60.97 -70.91 58.57 C-71.39 57.72 -71.87 56.86 -72.36 55.98 C-76.92 47.68 -77.45 38.88 -75.25 29.7 C-71.38 19.38 -64.49 12.66 -54.6 8.02 C-42.87 3.55 -31.15 3.41 -19.6 8.27 C-16.52 9.2 -15.07 9.11 -12.05 8.04 C-9.37 6.05 -6.94 3.88 -4.45 1.66 C-2.05 0.04 -2.05 0.04 0 0 Z " fill="#EA2078" transform="translate(708.046875,511.95703125)"/>
<path d="M0 0 C2.7 1.75 4.74 3.79 6.86 6.2 C10.04 9.63 10.04 9.63 13.86 12.2 C14.44 11.42 14.44 11.42 15.04 10.63 C20.91 3.31 27.9 -0.26 36.86 -2.8 C47 -3.78 56.65 -3.3 65.1 2.83 C73.32 10.27 78.44 21.38 79.03 32.43 C79.09 36.35 79.08 40.28 79.05 44.2 C79.05 45.65 79.05 47.09 79.05 48.54 C79.04 52.32 79.02 56.1 79 59.88 C78.98 63.75 78.97 67.62 78.96 71.49 C78.94 79.06 78.9 86.63 78.86 94.2 C75.23 94.26 71.61 94.3 67.98 94.33 C66.95 94.34 65.92 94.36 64.86 94.38 C63.87 94.39 62.88 94.39 61.87 94.4 C60.5 94.41 60.5 94.41 59.11 94.43 C56.86 94.2 56.86 94.2 54.86 92.2 C54.6 89.74 54.6 89.74 54.59 86.6 C54.57 84.83 54.57 84.83 54.56 83.03 C54.56 81.76 54.55 80.48 54.55 79.16 C54.53 77.16 54.51 75.16 54.49 73.16 C54.45 68.22 54.42 63.27 54.4 58.33 C54.39 55.56 54.37 52.79 54.34 50.03 C54.31 47.42 54.3 44.81 54.3 42.21 C54.21 34.42 53.79 28.18 49.04 21.73 C44.82 18.77 39.79 19.66 34.86 20.2 C28.9 22.23 26.28 25.66 23.28 31.04 C20.96 36.61 21.4 42.61 21.38 48.54 C21.37 49.81 21.35 51.09 21.34 52.4 C21.3 55.77 21.27 59.14 21.25 62.51 C21.22 67.28 21.17 72.05 21.11 76.82 C21.08 79.35 21.06 81.89 21.05 84.43 C21.03 86.13 21.03 86.13 21.02 87.88 C21.01 89.39 21.01 89.39 21 90.93 C20.86 93.2 20.86 93.2 19.86 94.2 C16.39 94.45 12.9 94.39 9.42 94.39 C7.95 94.41 7.95 94.41 6.45 94.43 C5.51 94.43 4.58 94.43 3.61 94.43 C2.75 94.44 1.89 94.44 1 94.45 C-1.14 94.2 -1.14 94.2 -3.14 92.2 C-3.41 89.98 -3.41 89.98 -3.43 87.18 C-3.44 86.13 -3.45 85.08 -3.47 84 C-3.47 82.86 -3.48 81.72 -3.48 80.55 C-3.5 79.37 -3.51 78.2 -3.53 77 C-3.58 73.23 -3.61 69.47 -3.64 65.7 C-3.68 60.78 -3.74 55.85 -3.8 50.92 C-3.8 49.8 -3.81 48.68 -3.81 47.52 C-3.93 37.88 -4.61 29.32 -10.14 21.2 C-14.64 18.95 -20.62 19.68 -25.43 20.68 C-31.27 22.92 -33.29 27.37 -35.88 32.79 C-37.97 38.45 -37.97 43.83 -37.91 49.81 C-37.92 51.05 -37.93 52.3 -37.94 53.58 C-37.97 57.52 -37.97 61.45 -37.95 65.39 C-37.96 69.37 -37.99 73.34 -38.02 77.32 C-38.03 79.78 -38.03 82.24 -38.03 84.71 C-38.03 85.81 -38.03 86.91 -38.03 88.05 C-38.03 89.02 -38.03 90 -38.02 91 C-38.14 93.2 -38.14 93.2 -39.14 94.2 C-42.61 94.45 -46.1 94.39 -49.58 94.39 C-51.05 94.41 -51.05 94.41 -52.55 94.43 C-53.49 94.43 -54.42 94.43 -55.39 94.43 C-56.25 94.44 -57.11 94.44 -58 94.45 C-60.14 94.2 -60.14 94.2 -62.14 92.2 C-62.33 89.32 -62.4 86.54 -62.38 83.65 C-62.39 82.77 -62.39 81.88 -62.39 80.97 C-62.39 78.04 -62.38 75.11 -62.37 72.17 C-62.37 70.14 -62.37 68.11 -62.37 66.07 C-62.37 61.81 -62.36 57.55 -62.35 53.28 C-62.33 47.81 -62.33 42.33 -62.33 36.86 C-62.33 32.66 -62.32 28.46 -62.31 24.26 C-62.31 22.24 -62.31 20.23 -62.31 18.21 C-62.31 15.39 -62.3 12.57 -62.29 9.75 C-62.29 8.91 -62.29 8.07 -62.29 7.2 C-62.26 1.43 -62.26 1.43 -61.14 -0.8 C-57.68 -0.85 -54.22 -0.89 -50.77 -0.92 C-49.78 -0.94 -48.8 -0.96 -47.78 -0.97 C-46.37 -0.98 -46.37 -0.98 -44.93 -0.99 C-43.63 -1.01 -43.63 -1.01 -42.3 -1.02 C-40.14 -0.8 -40.14 -0.8 -38.14 1.2 C-37.43 2.85 -36.76 4.52 -36.14 6.2 C-35.36 5.46 -34.57 4.72 -33.77 3.95 C-24.22 -3.85 -11.07 -5.74 0 0 Z " fill="#EA2078" transform="translate(421.140625,519.796875)"/>
<path d="M0 0 C12.05 13.26 13.66 26.16 13.63 43.5 C13.63 44.79 13.63 46.09 13.64 47.42 C13.64 50.14 13.64 52.86 13.63 55.58 C13.62 59.07 13.63 62.56 13.63 66.06 C13.64 69.39 13.64 72.73 13.63 76.06 C13.63 77.32 13.64 78.58 13.64 79.87 C13.63 81.6 13.63 81.6 13.63 83.36 C13.63 84.38 13.63 85.4 13.63 86.45 C13.5 88.75 13.5 88.75 12.5 89.75 C9.86 89.88 7.26 89.94 4.62 89.94 C3.89 89.95 3.16 89.96 2.4 89.97 C-1.44 89.99 -3.23 89.93 -6.5 87.75 C-7.49 85.13 -7.92 82.5 -8.5 79.75 C-9.26 80.33 -9.26 80.33 -10.04 80.92 C-11.47 82.01 -12.91 83.08 -14.36 84.16 C-16.05 85.41 -17.72 86.7 -19.38 88 C-27.87 92.76 -38.8 92.91 -48.11 90.56 C-57.28 87.44 -65.14 82.4 -69.59 73.59 C-72.89 64.97 -72.27 56.76 -68.8 48.29 C-64.75 40.38 -58.84 37.65 -50.68 34.7 C-45.09 33.04 -39.73 32.6 -33.91 32.43 C-33.21 32.41 -32.51 32.39 -31.79 32.37 C-29.57 32.31 -27.35 32.25 -25.12 32.19 C-23.61 32.14 -22.1 32.1 -20.58 32.06 C-16.89 31.95 -13.19 31.85 -9.5 31.75 C-9.94 30.15 -10.4 28.56 -10.85 26.97 C-11.23 25.64 -11.23 25.64 -11.61 24.28 C-13.21 19.74 -15.66 16.81 -19.88 14.38 C-26.67 12.76 -33.25 13.76 -39.5 16.75 C-43.09 19.51 -46.32 22.53 -49.5 25.75 C-55.36 22.32 -61.03 18.79 -66.5 14.75 C-65.53 8.18 -59.11 3.69 -54.07 -0.06 C-38.54 -10 -15.35 -11.36 0 0 Z " fill="#EA2078" transform="translate(908.5,524.25)"/>
<path d="M0 0 C0.98 -0.01 1.96 -0.02 2.97 -0.04 C3.91 -0.04 4.84 -0.04 5.81 -0.04 C6.67 -0.05 7.53 -0.05 8.42 -0.06 C10.56 0.19 10.56 0.19 12.56 2.19 C12.82 4.61 12.82 4.61 12.83 7.69 C12.84 8.84 12.85 9.99 12.86 11.18 C12.87 12.43 12.87 13.68 12.87 14.97 C12.89 16.94 12.91 18.9 12.93 20.87 C12.97 25.71 13 30.56 13.02 35.41 C13.03 38.13 13.05 40.84 13.08 43.56 C13.11 46.11 13.12 48.67 13.12 51.22 C13.2 57.86 13.41 64.2 16.56 70.19 C21.83 74.98 27.37 74.78 34.3 74.58 C39.48 73.96 41.75 72.34 45.11 68.35 C46.67 66.03 47.42 64.05 48.19 61.38 C48.43 60.56 48.67 59.75 48.91 58.92 C50.57 51.96 50.75 45.16 50.84 38.04 C50.86 36.99 50.88 35.93 50.9 34.85 C50.98 30.36 51.05 25.87 51.11 21.39 C51.17 18.1 51.22 14.82 51.28 11.54 C51.29 10.52 51.31 9.49 51.32 8.44 C51.35 7.03 51.35 7.03 51.37 5.6 C51.39 4.35 51.39 4.35 51.41 3.08 C51.56 1.19 51.56 1.19 52.56 0.19 C54.11 0.09 55.67 0.06 57.22 0.05 C58.16 0.05 59.1 0.05 60.07 0.05 C61.06 0.05 62.04 0.06 63.06 0.06 C64.55 0.06 64.55 0.06 66.06 0.05 C67.47 0.05 67.47 0.05 68.91 0.05 C69.77 0.06 70.64 0.06 71.54 0.06 C73.56 0.19 73.56 0.19 74.56 1.19 C74.66 4.11 74.69 7.01 74.68 9.93 C74.68 10.85 74.68 11.76 74.68 12.71 C74.68 15.76 74.67 18.8 74.66 21.85 C74.66 23.95 74.66 26.06 74.66 28.17 C74.65 33.72 74.64 39.28 74.63 44.83 C74.62 50.49 74.62 56.16 74.61 61.82 C74.6 72.94 74.58 84.07 74.56 95.19 C71.1 95.25 67.65 95.28 64.19 95.31 C63.2 95.33 62.22 95.35 61.2 95.36 C60.26 95.37 59.32 95.38 58.35 95.38 C57.05 95.4 57.05 95.4 55.72 95.41 C53.56 95.19 53.56 95.19 51.56 93.19 C51.16 90.86 50.82 88.53 50.56 86.19 C50.04 86.59 49.52 86.98 48.99 87.39 C46.86 89.01 44.71 90.6 42.56 92.19 C41.78 92.76 41 93.34 40.19 93.94 C32.15 97.77 23.18 98 14.56 96.19 C7.36 93.58 -0.02 90.38 -4.27 83.7 C-8.65 74.32 -11.56 64.49 -11.57 54.11 C-11.57 52.93 -11.57 51.75 -11.58 50.54 C-11.57 49.28 -11.57 48.02 -11.57 46.73 C-11.57 45.43 -11.57 44.13 -11.57 42.79 C-11.57 40.06 -11.57 37.32 -11.57 34.58 C-11.56 31.07 -11.57 27.55 -11.57 24.04 C-11.58 20.68 -11.57 17.33 -11.57 13.98 C-11.57 12.71 -11.57 11.45 -11.58 10.14 C-11.57 8.98 -11.57 7.82 -11.57 6.62 C-11.57 5.59 -11.57 4.57 -11.56 3.51 C-11.26 -2 -4.26 0 0 0 Z " fill="#EA2078" transform="translate(533.4375,518.8125)"/>
<path d="M0 0 C8.12 4.91 11.97 14.02 15.52 22.52 C16.4 26.78 16.64 30.83 16.63 35.17 C16.63 37.12 16.63 37.12 16.63 39.11 C16.62 40.52 16.62 41.92 16.61 43.33 C16.61 44.78 16.61 46.23 16.61 47.67 C16.61 51.47 16.6 55.27 16.58 59.07 C16.57 62.95 16.57 66.83 16.56 70.71 C16.55 78.32 16.54 85.92 16.52 93.52 C13.06 93.58 9.6 93.62 6.14 93.65 C5.16 93.67 4.17 93.68 3.16 93.7 C2.22 93.71 1.27 93.71 0.3 93.72 C-1 93.73 -1 93.73 -2.33 93.75 C-4.48 93.52 -4.48 93.52 -6.48 91.52 C-6.74 89.22 -6.74 89.22 -6.76 86.3 C-6.77 85.21 -6.78 84.11 -6.79 82.99 C-6.79 81.8 -6.79 80.62 -6.79 79.39 C-6.82 76.89 -6.84 74.39 -6.87 71.88 C-6.9 67.93 -6.92 63.97 -6.94 60.02 C-6.96 56.21 -7 52.39 -7.04 48.58 C-7.04 47.41 -7.04 46.24 -7.04 45.03 C-7.14 36.64 -7.93 29.14 -13.48 22.52 C-13.48 21.86 -13.48 21.2 -13.48 20.52 C-20.39 18.42 -29.42 18.16 -36.11 21.02 C-40.75 23.81 -42.51 28.29 -44.02 33.29 C-44.58 35.97 -44.64 38.46 -44.67 41.19 C-44.69 42.33 -44.71 43.47 -44.72 44.64 C-44.74 45.86 -44.75 47.09 -44.77 48.35 C-44.78 49.6 -44.8 50.86 -44.82 52.16 C-44.89 56.86 -44.95 61.56 -45.01 66.26 C-45.07 70.88 -45.14 75.49 -45.2 80.1 C-45.22 81.33 -45.23 82.56 -45.24 83.82 C-45.26 84.95 -45.28 86.08 -45.29 87.24 C-45.31 88.74 -45.31 88.74 -45.33 90.27 C-45.48 92.52 -45.48 92.52 -46.48 93.52 C-49.79 93.77 -53.11 93.71 -56.42 93.71 C-57.35 93.72 -58.29 93.74 -59.25 93.75 C-60.59 93.75 -60.59 93.75 -61.95 93.75 C-62.77 93.76 -63.59 93.76 -64.44 93.77 C-66.48 93.52 -66.48 93.52 -68.48 91.52 C-68.68 88.61 -68.75 85.78 -68.73 82.87 C-68.73 81.97 -68.73 81.07 -68.73 80.15 C-68.74 77.18 -68.73 74.21 -68.71 71.24 C-68.71 69.18 -68.71 67.12 -68.71 65.07 C-68.71 60.75 -68.7 56.44 -68.69 52.12 C-68.67 46.58 -68.67 41.03 -68.67 35.49 C-68.67 31.24 -68.66 26.99 -68.66 22.74 C-68.65 20.7 -68.65 18.65 -68.65 16.61 C-68.65 13.75 -68.64 10.9 -68.63 8.05 C-68.63 7.2 -68.63 6.34 -68.63 5.46 C-68.6 -0.36 -68.6 -0.36 -67.48 -1.48 C-64.18 -1.73 -60.86 -1.66 -57.55 -1.66 C-56.15 -1.68 -56.15 -1.68 -54.72 -1.7 C-53.38 -1.7 -53.38 -1.7 -52.02 -1.71 C-51.2 -1.71 -50.38 -1.72 -49.53 -1.72 C-47.48 -1.48 -47.48 -1.48 -45.48 0.52 C-44.77 2.84 -44.09 5.17 -43.48 7.52 C-42.88 6.94 -42.88 6.94 -42.27 6.35 C-30.52 -4.41 -14.4 -6.97 0 0 Z " fill="#E92078" transform="translate(804.484375,520.4765625)"/>
<path d="M0 0 C4.17 2.57 7.59 6.85 9.09 11.55 C10.17 17.63 9.31 22.06 6.44 27.5 C3.86 30.47 2.08 32.33 -1.92 32.74 C-8.45 32.91 -12.3 32.45 -17.56 28.5 C-21.38 24.3 -21.86 20.33 -21.77 14.84 C-21.31 9.7 -19.41 5.97 -15.56 2.62 C-10.52 -0.95 -6.01 -1.17 0 0 Z " fill="#F3E5E0" transform="translate(677.5625,535.5)"/>
<path d="M0 0 C0.98 0.12 1.96 0.25 2.97 0.38 C4.1 0.51 5.24 0.65 6.41 0.79 C7.04 0.88 7.68 0.97 8.33 1.07 C10.75 1.42 13.17 1.72 15.59 2.02 C17.39 2.26 19.18 2.51 20.97 2.75 C22.26 2.92 22.26 2.92 23.58 3.09 C28.14 3.77 31.73 4.46 35.47 7.38 C37.47 10.38 37.47 10.38 37.47 13.81 C36.47 17.38 36.47 17.38 33.59 19.75 C25.8 23.8 15.58 23.51 7.08 21.62 C2.42 20 -2.38 18.26 -5.53 14.38 C-6.49 11.32 -7.01 8.56 -6.53 5.38 C-3.65 0.54 -3.65 0.54 0 0 Z " fill="#F3E5E0" transform="translate(656.53125,617.625)"/>
<path d="M0 0 C3.79 1.26 4.02 2.33 5.86 5.79 C6.39 6.78 6.93 7.78 7.48 8.81 C8.04 9.88 8.61 10.96 9.19 12.06 C10.05 13.68 10.05 13.68 10.93 15.34 C15.43 23.82 19.8 32.37 24 41 C21.12 39.87 20.06 39.1 18.33 36.45 C16.15 33.67 16.15 33.67 12.52 33.43 C11.14 33.43 9.77 33.46 8.39 33.51 C7.3 33.52 7.3 33.52 6.19 33.53 C3.87 33.56 1.56 33.62 -0.75 33.69 C-2.32 33.71 -3.89 33.74 -5.46 33.76 C-9.31 33.81 -13.16 33.9 -17 34 C-17.27 34.97 -17.54 35.94 -17.81 36.94 C-18.2 37.95 -18.6 38.96 -19 40 C-20.49 40.5 -20.49 40.5 -22 41 C-23 38 -23 38 -22.21 36.34 C-21.79 35.74 -21.37 35.13 -20.94 34.5 C-18.91 31.44 -17.05 28.36 -15.31 25.12 C-14.82 24.21 -14.33 23.3 -13.82 22.36 C-13.22 21.25 -12.62 20.14 -12 19 C-10.26 15.79 -8.51 12.58 -6.75 9.38 C-6.31 8.57 -5.88 7.76 -5.43 6.93 C-5.01 6.18 -4.6 5.42 -4.17 4.65 C-3.8 3.97 -3.43 3.29 -3.05 2.59 C-2 1 -2 1 0 0 Z " fill="#0C1A51" transform="translate(575,734)"/>
<path d="M0 0 C1.11 -0 2.22 -0 3.37 -0 C4.52 -0 5.67 0 6.86 0.01 C8.03 0 9.2 0 10.4 -0 C11.5 -0 12.61 -0 13.75 0 C15.28 0 15.28 0 16.83 0 C19.18 0.13 19.18 0.13 20.18 1.13 C20.3 8.03 18.03 11.3 13.3 16.21 C7.87 21.11 1.7 22.57 -5.44 22.48 C-9.63 21.87 -12.74 19.98 -15.82 17.13 C-17.51 14.26 -17.51 14.26 -17.82 11.13 C-16.66 7.1 -15.74 4.83 -12.39 2.26 C-8.15 0.4 -4.63 0.01 0 0 Z " fill="#F3E5E0" transform="translate(878.82421875,573.8671875)"/>
<path d="M0 0 C1.3 0.01 1.3 0.01 2.63 0.01 C3.58 0.01 4.54 0.02 5.52 0.02 C7.02 0.04 7.02 0.04 8.55 0.06 C9.53 0.06 10.52 0.06 11.53 0.06 C25.44 0.14 25.44 0.14 28.8 2.74 C30.37 6.43 30.96 10.34 29.86 14.24 C26.05 17.11 23.25 17.62 18.54 17.61 C16.75 17.61 16.75 17.61 14.93 17.6 C13.69 17.59 12.45 17.57 11.18 17.56 C9.93 17.56 8.68 17.56 7.39 17.57 C-1.87 17.51 -1.87 17.51 -4.14 15.24 C-4.4 12.27 -4.4 12.27 -4.39 8.74 C-4.39 7.58 -4.4 6.41 -4.4 5.21 C-4.09 1.75 -3.6 0.41 0 0 Z " fill="#F3E5E0" transform="translate(455.135498046875,736.757080078125)"/>
<path d="M0 0 C2.16 3.05 3.18 4.65 2.69 8.38 C2.46 8.91 2.23 9.45 2 10 C1.01 9.34 0.02 8.68 -1 8 C-1 7.01 -1 6.02 -1 5 C-1.66 5 -2.32 5 -3 5 C-3.93 4.04 -3.93 4.04 -4.88 3.06 C-9.71 -1.63 -17.41 -0.31 -23.76 -0.23 C-28.62 -0.07 -32.54 1.05 -37 3 C-37.33 4.98 -37.66 6.96 -38 9 C-34.81 11.79 -32.38 12.52 -28.2 13.06 C-26.52 13.3 -26.52 13.3 -24.8 13.54 C-23.63 13.69 -22.46 13.84 -21.25 14 C-2.22 16.51 -2.22 16.51 1.5 20.69 C2.26 24.19 2.59 27.45 2 31 C-0.45 34.45 -3.06 35.66 -7 37 C-10.93 37.43 -14.86 37.37 -18.81 37.38 C-20.4 37.41 -20.4 37.41 -22.01 37.45 C-29.61 37.48 -35.26 36.51 -41 31.12 C-42.32 28.32 -42.21 26.05 -42 23 C-41.34 23 -40.68 23 -40 23 C-39.15 24.73 -38.31 26.45 -37.46 28.18 C-34.85 31.44 -31.79 32.78 -27.66 33.28 C-24.95 33.4 -22.27 33.41 -19.56 33.38 C-18.65 33.39 -17.73 33.4 -16.79 33.41 C-11.09 33.39 -7.06 32.63 -2 30 C-1.93 26.66 -1.93 24.2 -3 21 C-3.9 20.87 -4.8 20.74 -5.73 20.6 C-9.11 20.11 -12.49 19.6 -15.86 19.08 C-17.32 18.86 -18.77 18.65 -20.23 18.44 C-22.33 18.13 -24.43 17.81 -26.54 17.48 C-28.43 17.2 -28.43 17.2 -30.36 16.91 C-35.73 15.57 -39.84 13.74 -43 9 C-43.13 5.55 -43.04 3.14 -40.64 0.5 C-30 -7.17 -10.9 -7.41 0 0 Z " fill="#0C1A51" transform="translate(831,738)"/>
<path d="M0 0 C1.23 -0 2.45 -0.01 3.71 -0.01 C5 -0 6.29 0.01 7.61 0.02 C8.88 0.01 10.15 0 11.46 -0.01 C26.42 0.02 26.42 0.02 31.3 4.39 C33.34 8 34.18 11.11 33.93 15.27 C32.49 18.08 32.49 18.08 30.93 20.27 C30.66 23.32 30.66 23.32 32.43 25.7 C34.6 30.86 34.17 35.75 33.93 41.27 C31.96 40.61 31.96 40.61 29.93 39.27 C29.42 36.77 29.42 36.77 29.36 33.83 C29.33 29.93 29.33 29.93 27.77 26.48 C22.46 22.99 14.73 24.12 8.61 24.14 C7.6 24.14 6.59 24.13 5.54 24.13 C4.58 24.13 3.62 24.13 2.62 24.13 C1.75 24.13 0.87 24.14 -0.04 24.14 C-2.07 24.04 -2.07 24.04 -3.07 25.27 C-3.31 27.96 -3.5 30.63 -3.64 33.33 C-3.68 34.09 -3.72 34.85 -3.77 35.63 C-3.87 37.51 -3.97 39.39 -4.07 41.27 C-5.39 40.61 -6.71 39.95 -8.07 39.27 C-8.12 34.03 -8.16 28.8 -8.18 23.57 C-8.19 21.79 -8.21 20.01 -8.23 18.22 C-8.25 15.67 -8.26 13.11 -8.27 10.55 C-8.28 9.76 -8.29 8.96 -8.3 8.13 C-8.3 6.18 -8.2 4.22 -8.07 2.27 C-5.34 -0.46 -3.82 0.01 0 0 Z M-4.07 5.27 C-4.39 8.32 -4.39 8.32 -4.32 11.77 C-4.33 12.93 -4.33 14.1 -4.34 15.3 C-4.38 18.38 -4.38 18.38 -2.07 20.27 C2.35 20.73 6.8 20.59 11.24 20.58 C12.48 20.59 13.71 20.61 14.99 20.63 C16.78 20.63 16.78 20.63 18.6 20.63 C19.69 20.63 20.79 20.63 21.91 20.64 C25.31 20.22 27.2 19.31 29.93 17.27 C31.02 13.37 30.43 9.45 28.86 5.77 C23.76 1.81 14.76 3.08 8.61 3.08 C7.11 3.06 7.11 3.06 5.58 3.04 C4.63 3.04 3.67 3.04 2.69 3.04 C1.82 3.03 0.95 3.03 0.06 3.02 C-2.29 3.07 -2.29 3.07 -4.07 5.27 Z " fill="#0C1A51" transform="translate(455.07421875,733.734375)"/>
<path d="M0 0 C2.06 2.51 3.62 5.07 5 8 C4.34 8.66 3.68 9.32 3 10 C2.6 9.46 2.2 8.91 1.79 8.36 C-2.54 2.91 -6.05 0.02 -13 -1 C-21.55 -1.65 -29.09 -1.44 -37 2 C-37.99 2.33 -38.98 2.66 -40 3 C-43.45 10.66 -43.62 18.13 -41 26 C-39.51 27.41 -39.51 27.41 -37.69 28.62 C-37.09 29.05 -36.5 29.48 -35.89 29.91 C-31.33 32.54 -26.35 32.22 -21.25 32.25 C-20.48 32.27 -19.7 32.29 -18.91 32.31 C-12.93 32.35 -7.05 31.65 -2.35 27.56 C-0.62 25.56 0.13 23.48 1 21 C1.99 21.33 2.98 21.66 4 22 C3.93 25.11 3.63 27.28 1.55 29.66 C-7.32 37.47 -17.05 36.9 -28.37 36.28 C-34.84 35.59 -40.22 33.11 -44.6 28.21 C-47.76 22.99 -47.94 16.9 -47 11 C-45.29 5.82 -43.23 2.05 -39.06 -1.5 C-26.97 -7.42 -11.22 -8.45 0 0 Z " fill="#0C1A51" transform="translate(654,739)"/>
<path d="M0 0 C1.19 -0.01 1.19 -0.01 2.4 -0.02 C4.07 -0.03 5.75 -0.03 7.42 -0.04 C9.99 -0.05 12.56 -0.08 15.12 -0.11 C16.75 -0.12 18.37 -0.12 20 -0.12 C20.77 -0.14 21.54 -0.15 22.34 -0.16 C24.5 -0.15 24.5 -0.15 28 0.2 C28.66 1.19 29.32 2.18 30 3.2 C28.42 3.24 28.42 3.24 26.8 3.28 C22.9 3.37 19 3.47 15.1 3.58 C13.41 3.62 11.72 3.66 10.03 3.7 C7.6 3.76 5.18 3.82 2.75 3.89 C1.61 3.91 1.61 3.91 0.45 3.94 C-3.07 3.72 -3.07 3.72 -6 5.2 C-6.1 6.99 -6.13 8.79 -6.12 10.58 C-6.13 11.56 -6.13 12.53 -6.13 13.54 C-6.11 16.31 -6.11 16.31 -5 19.2 C5.23 19.53 15.46 19.86 26 20.2 C26.5 21.69 26.5 21.69 27 23.2 C26.04 23.2 25.07 23.19 24.08 23.19 C20.51 23.17 16.95 23.16 13.38 23.15 C11.84 23.14 10.29 23.14 8.75 23.13 C6.53 23.12 4.31 23.11 2.1 23.11 C1.4 23.1 0.71 23.1 -0.01 23.09 C-1.67 23.09 -3.34 23.14 -5 23.2 C-6.31 24.28 -6.31 24.28 -6.13 26.89 C-6.13 27.98 -6.13 29.08 -6.12 30.2 C-6.13 31.3 -6.13 32.39 -6.13 33.52 C-6.31 36.12 -6.31 36.12 -5 37.2 C-2.55 37.36 -0.13 37.46 2.32 37.52 C3.41 37.55 3.41 37.55 4.53 37.58 C6.88 37.65 9.22 37.71 11.56 37.77 C13.15 37.81 14.73 37.85 16.32 37.9 C20.21 38 24.11 38.11 28 38.2 C28.33 39.19 28.66 40.18 29 41.2 C23.77 41.25 18.53 41.29 13.3 41.31 C11.52 41.32 9.74 41.34 7.96 41.35 C5.4 41.38 2.85 41.39 0.29 41.4 C-0.51 41.41 -1.31 41.42 -2.13 41.43 C-4.09 41.43 -6.05 41.33 -8 41.2 C-10 39.2 -10 39.2 -10.23 35.49 C-10.23 33.89 -10.22 32.29 -10.2 30.7 C-10.19 29.85 -10.19 29.01 -10.19 28.15 C-10.18 25.46 -10.15 22.77 -10.12 20.08 C-10.11 18.26 -10.11 16.43 -10.1 14.61 C-10.08 10.14 -10.04 5.67 -10 1.2 C-6.85 -0.37 -3.46 0.02 0 0 Z " fill="#0C1A51" transform="translate(515,733.796875)"/>
<path d="M0 0 C0.66 0 1.32 0 2 0 C7.37 7.21 11.06 15.97 15 24 C6.42 24 -2.16 24 -11 24 C-9.88 17.25 -9.88 17.25 -7.97 13.98 C-7.37 12.94 -7.37 12.94 -6.76 11.88 C-6.35 11.18 -5.93 10.48 -5.5 9.75 C-4.68 8.33 -3.85 6.91 -3.03 5.48 C-2.67 4.86 -2.3 4.24 -1.92 3.6 C-1.24 2.42 -0.61 1.22 0 0 Z " fill="#F2E4DF" transform="translate(574,739)"/>
<path d="M0 0 C5.66 -0.07 11.32 -0.13 16.98 -0.16 C18.91 -0.18 20.83 -0.2 22.76 -0.23 C25.52 -0.26 28.29 -0.28 31.05 -0.29 C32.35 -0.32 32.35 -0.32 33.67 -0.34 C36.1 -0.34 36.1 -0.34 40 0 C40.66 0.99 41.32 1.98 42 3 C32.1 3.5 32.1 3.5 22 4 C22 16.21 22 28.42 22 41 C20.68 40.67 19.36 40.34 18 40 C17.67 28.12 17.34 16.24 17 4 C11.06 3.67 5.12 3.34 -1 3 C-0.67 2.01 -0.34 1.02 0 0 Z " fill="#0C1A51" transform="translate(667,734)"/>
<path d="M0 0 C5.66 -0.07 11.32 -0.13 16.98 -0.16 C18.91 -0.18 20.83 -0.2 22.76 -0.23 C25.52 -0.26 28.29 -0.28 31.05 -0.29 C32.35 -0.32 32.35 -0.32 33.67 -0.34 C36.1 -0.34 36.1 -0.34 40 0 C40.66 0.99 41.32 1.98 42 3 C32.1 3.5 32.1 3.5 22 4 C22 15.88 22 27.76 22 40 C21.01 40 20.02 40 19 40 C16.97 37.97 17.74 33.82 17.68 31.03 C17.66 30.23 17.64 29.43 17.62 28.61 C17.56 26.05 17.5 23.5 17.44 20.94 C17.39 19.21 17.35 17.48 17.31 15.75 C17.2 11.5 17.1 7.25 17 3 C11.39 3 5.78 3 0 3 C0 2.01 0 1.02 0 0 Z " fill="#0C1A51" transform="translate(740,734)"/>
<path d="M0 0 C0 6.93 0 13.86 0 21 C-0.66 21 -1.32 21 -2 21 C-3.15 18.7 -3.12 17.42 -3.1 14.87 C-3.09 14.06 -3.09 13.26 -3.09 12.43 C-3.08 11.58 -3.07 10.74 -3.06 9.88 C-3.06 9.03 -3.05 8.18 -3.05 7.3 C-3.04 5.2 -3.02 3.1 -3 1 C-1 0 -1 0 0 0 Z " fill="#CD9DB3" transform="translate(993,622)"/>
</svg>
